<?xml version="1.0" standalone="no"?>
<!DOCTYPE svg PUBLIC "-//W3C//DTD SVG 1.1//EN" "http://www.w3.org/Graphics/SVG/1.1/DTD/svg11.dtd" >
<svg xmlns="http://www.w3.org/2000/svg" xmlns:xlink="http://www.w3.org/1999/xlink" version="1.1">
<metadata>
Created by FontForge 20170731 at Thu Jun 23 12:50:53 2011
 By Aleksey,,,
Copyright (c) 1985, 1987, 1989, 1990, 1991 Adobe Systems Incorporated.  All Rights Reserved.ITC Avant Garde Gothic is a registered trademark of International Typeface Corporation.
</metadata>
<defs>
<font id="AvantGarde-Demi" horiz-adv-x="1146" >
  <font-face 
    font-family="ITC Avant Garde Gothic"
    font-weight="500"
    font-stretch="normal"
    units-per-em="2048"
    panose-1="0 0 0 0 0 0 0 0 0 0"
    ascent="1638"
    descent="-410"
    x-height="1137"
    cap-height="1516"
    bbox="-162 -514 2150 2091"
    underline-thickness="102"
    underline-position="-357"
    unicode-range="U+0020-FB04"
  />
<missing-glyph horiz-adv-x="573" 
 />
    <glyph glyph-name=".notdef" horiz-adv-x="573" 
 />
    <glyph glyph-name=".null" horiz-adv-x="0" 
 />
    <glyph glyph-name="nonmarkingreturn" horiz-adv-x="682" 
 />
    <glyph glyph-name="space" unicode=" " horiz-adv-x="573" 
 />
    <glyph glyph-name="exclam" unicode="!" horiz-adv-x="573" 
d="M150 0v260h272v-260h-272zM150 385v1131h272v-1131h-272z" />
    <glyph glyph-name="quotedbl" unicode="&#x22;" horiz-adv-x="737" 
d="M39 1516h272l-55 -607h-164zM426 1516h272l-53 -607h-168z" />
    <glyph glyph-name="numbersign" unicode="#" 
d="M59 403l9 195h194l33 238h-174l8 194h193l55 404h205l-56 -404h187l55 404h205l-55 -404h157l-8 -194h-176l-33 -238h156l-8 -195h-177l-55 -403h-205l56 403h-187l-55 -403h-205l55 403h-174zM467 598h186l33 238h-186z" />
    <glyph glyph-name="dollar" unicode="$" 
d="M119 481v29h270q6 -92 62.5 -134t119.5 -42q68 0 125.5 46t57.5 130q0 39 -13.5 69.5t-29 48t-51 35t-59 24.5t-75.5 22q-350 96 -350 405q0 137 75 239.5t206 139.5v262h258v-266q111 -37 181.5 -128t82.5 -222h-256q-6 23 -13.5 38t-22.5 38.5t-40.5 36t-62.5 12.5
q-51 0 -93 -39t-42 -103q0 -78 52 -111.5t204 -80.5q322 -96 321 -418q0 -166 -90 -274.5t-221 -143.5v-270h-258v268q-111 31 -186.5 90.5t-104.5 125t-38 104t-9 69.5z" />
    <glyph glyph-name="percent" unicode="%" horiz-adv-x="1761" 
d="M74 1175.5q0 153.5 108.5 262t259.5 108.5q154 0 261.5 -108.5t107.5 -262t-108.5 -261t-260 -107.5t-260 107.5t-108.5 261zM301 1176q0 -57 42 -99.5t99.5 -42.5t99.5 42t42 101.5t-41 100.5t-100.5 41t-100.5 -41t-41 -102zM459 0l626 1516h209l-628 -1516h-207z
M944 340q0 154 108.5 262.5t262.5 108.5q152 0 260 -108.5t108 -262.5t-109.5 -262.5t-258.5 -108.5q-152 0 -261.5 107.5t-109.5 263.5zM1171 340q0 -59 42 -101t102 -42q57 0 99 42t42 101q0 61 -42 102t-99 41q-61 0 -102.5 -42t-41.5 -101z" />
    <glyph glyph-name="ampersand" unicode="&#x26;" horiz-adv-x="1392" 
d="M70 451q0 92 28.5 166.5t83 128t88 78t84.5 55.5q-63 76 -95 137t-32 147q0 170 116 276.5t269 106.5q160 0 276 -106.5t116 -268.5q0 -240 -240 -372l139 -156l148 252h303l-260 -459l268 -291l-199 -176l-209 228q-166 -227 -385 -228q-188 0 -343.5 133.5
t-155.5 348.5zM342 438q0 -94 62.5 -148t146.5 -54q55 0 101 32.5t65.5 60t46.5 74.5l-238 259q-35 -16 -55 -28.5t-56 -40.5t-54.5 -67t-18.5 -88zM485 1163q0 -45 27 -83t82 -93q49 25 75.5 42.5t51 52t24.5 77.5q0 51 -31.5 90t-101.5 39q-51 0 -89 -36t-38 -89z" />
    <glyph glyph-name="quotesingle" unicode="'" horiz-adv-x="450" 
d="M90 1516h272l-53 -607h-166z" />
    <glyph glyph-name="parenleft" unicode="(" horiz-adv-x="778" 
d="M152 608q0 223 81.5 425t223.5 343q102 100 260 168v-295q-145 -119 -215 -287.5t-70 -351.5q0 -227 91 -396t194 -241v-295q-51 18 -83 33t-89.5 55.5t-112.5 102.5q-43 47 -83 105.5t-89 152.5t-78.5 220t-29.5 261z" />
    <glyph glyph-name="parenright" unicode=")" horiz-adv-x="778" 
d="M76 1544q51 -18 82.5 -32.5t89 -55.5t112.5 -102q43 -47 83 -105.5t89.5 -153t79 -220t29.5 -261.5q0 -223 -82 -424.5t-223 -343.5q-102 -100 -260 -168v295q145 119 214.5 288t69.5 351q0 227 -91 396.5t-193 240.5v295z" />
    <glyph glyph-name="asterisk" unicode="*" horiz-adv-x="901" 
d="M137 1307l209 -11l-113 170l115 80l105 -188l104 188l115 -80l-115 -170l209 11l-2 -138l-207 11l115 -170l-125 -74l-94 188l-97 -188l-125 74l117 170l-209 -11z" />
    <glyph glyph-name="plus" unicode="+" horiz-adv-x="1228" 
d="M98 395v246h394v395h245v-395h393v-246h-393v-395h-245v395h-394z" />
    <glyph glyph-name="comma" unicode="," horiz-adv-x="573" 
d="M150 0v272h272v-288q0 -147 -86 -211t-184 -62v137q35 8 54 14.5t41.5 33t22.5 69.5v35h-120z" />
    <glyph glyph-name="hyphen" unicode="-" horiz-adv-x="860" 
d="M145 471v242h570v-242h-570z" />
    <glyph glyph-name="period" unicode="." horiz-adv-x="573" 
d="M150 0v272h272v-272h-272z" />
    <glyph glyph-name="slash" unicode="/" horiz-adv-x="942" 
d="M12 -205l641 1721h277l-643 -1721h-275z" />
    <glyph glyph-name="zero" unicode="0" 
d="M66 492v544q0 129 46 230.5t121.5 160t164.5 89t186 30.5q193 0 346 -135t153 -375v-559q0 -236 -148.5 -372t-359.5 -136q-219 0 -385 166q-124 126 -124 357zM338 508q0 -154 73.5 -217.5t163.5 -63.5q35 0 71 10.5t76 37t64.5 85t24.5 142.5v532q0 111 -68.5 182.5
t-164.5 71.5q-102 0 -171 -69.5t-69 -194.5v-516z" />
    <glyph glyph-name="one" unicode="1" 
d="M281 1257v259h462v-1516h-272v1257h-190z" />
    <glyph glyph-name="two" unicode="2" 
d="M74 1044q0 195 137 348.5t360 153.5q221 0 360.5 -150.5t139.5 -346.5q0 -127 -63.5 -249t-229.5 -268l-307 -274h600v-258h-981v258l541 504q168 156 168 299q0 111 -67.5 169t-153.5 58q-135 0 -203 -123q-29 -55 -29 -170h-270q-2 20 -2 49z" />
    <glyph glyph-name="three" unicode="3" 
d="M57 457h273q10 -111 87 -170.5t158 -59.5q92 0 167 70t75 176q0 104 -73.5 178t-227.5 74h-45v258h47q80 0 135.5 40t55.5 122q0 76 -39 109.5t-97 33.5q-66 0 -98.5 -46t-36.5 -93h-272q8 98 45 175t82 117t102.5 65.5t98.5 32.5t75 7q172 0 292 -123t120 -286
q0 -172 -131 -269q84 -35 138 -94t72.5 -126.5t24 -101.5t5.5 -69q0 -225 -156 -366.5t-365 -141.5q-127 0 -239.5 57.5t-188.5 170.5t-84 260z" />
    <glyph glyph-name="four" unicode="4" 
d="M31 227v224l696 1065h229v-1031h160v-258h-160v-227h-272v227h-653zM324 485h360v570h-4z" />
    <glyph glyph-name="five" unicode="5" 
d="M51 451h273q23 -119 92 -171.5t147 -52.5q121 0 190.5 84t69.5 187q0 100 -71.5 183t-184.5 83q-117 0 -205 -109l-243 68l143 793h686v-259h-481l-49 -278q96 43 194 43q207 0 345.5 -157.5t138.5 -366.5q0 -213 -150.5 -371t-376.5 -158q-203 0 -356.5 142.5
t-161.5 339.5z" />
    <glyph glyph-name="six" unicode="6" 
d="M47 512q0 92 35 188q39 98 88 170l422 643h319l-336 -512q23 6 74 7q172 -2 310.5 -140.5t138.5 -353.5q0 -236 -156 -390.5t-369 -154.5t-369.5 151.5t-156.5 391.5zM319 500q0 -113 73 -193t181 -80q115 0 183.5 82t68.5 180q0 111 -74.5 189t-183.5 78
q-113 0 -180.5 -81t-67.5 -175z" />
    <glyph glyph-name="seven" unicode="7" 
d="M127 1257v259h893v-259l-547 -1257h-303l565 1257h-608z" />
    <glyph glyph-name="eight" unicode="8" 
d="M68 461q0 260 225 381q-135 135 -135 286q0 164 113.5 291t302 127t303 -127t114.5 -291q0 -70 -27.5 -133t-49 -88.5t-60.5 -64.5q225 -121 225 -381q0 -207 -151.5 -349.5t-354 -142.5t-354 142.5t-151.5 349.5zM340 461q0 -96 68.5 -165t165 -69t165 69t68.5 165
t-68.5 164.5t-165 68.5t-165 -68.5t-68.5 -164.5zM414 1124q0 -66 47 -113.5t112 -47.5q68 0 115 48t47 113q0 68 -47 116t-115 48q-66 0 -112.5 -48t-46.5 -116z" />
    <glyph glyph-name="nine" unicode="9" 
d="M49 999q0 236 155.5 390.5t368.5 154.5t370 -151.5t157 -391.5q0 -92 -35 -188q-39 -98 -88 -170l-422 -643h-319l335 512q-23 -6 -73 -6q-172 2 -310.5 139t-138.5 354zM322 1024q0 -117 71.5 -191.5t181.5 -74.5q115 0 183.5 81t68.5 175q0 113 -72.5 192.5
t-179.5 79.5q-117 0 -185 -82t-68 -180z" />
    <glyph glyph-name="colon" unicode=":" horiz-adv-x="573" 
d="M150 0v272h272v-272h-272zM150 864v273h272v-273h-272z" />
    <glyph glyph-name="semicolon" unicode=";" horiz-adv-x="573" 
d="M150 0v272h272v-288q0 -147 -86 -211q-83 -62 -178 -62h-6v137q35 8 54 14.5t41.5 33t22.5 69.5v35h-120zM150 864v273h272v-273h-272z" />
    <glyph glyph-name="less" unicode="&#x3c;" horiz-adv-x="1228" 
d="M94 422v192l1041 439v-236l-721 -299l721 -299v-235z" />
    <glyph glyph-name="equal" unicode="=" horiz-adv-x="1228" 
d="M98 166v246h1032v-246h-1032zM98 625v245h1032v-245h-1032z" />
    <glyph glyph-name="greater" unicode="&#x3e;" horiz-adv-x="1228" 
d="M94 -16v235l721 299l-721 299v236l1041 -439v-192z" />
    <glyph glyph-name="question" unicode="?" 
d="M78 1073q10 133 62.5 230.5t110.5 141.5t134 69.5t107.5 28.5t56.5 3q186 0 321.5 -127t135.5 -340q0 -88 -41 -172t-166 -200q-45 -37 -67.5 -63t-43 -76t-20.5 -115v-70h-273v59q0 256 183 410q84 70 119.5 117t35.5 110q0 104 -60.5 149.5t-131.5 45.5
q-45 0 -80 -14.5t-53.5 -32t-32 -49t-17.5 -51t-8 -54.5h-272zM395 0v272h273v-272h-273z" />
    <glyph glyph-name="at" unicode="@" horiz-adv-x="1515" 
d="M102 719q0 309 220.5 524t529.5 215q279 0 481.5 -172t202.5 -436q0 -137 -53 -253t-132 -182.5t-158 -102.5t-142 -36q-49 0 -83 31t-36 86h-4q-86 -117 -223 -117q-127 0 -215.5 97.5t-88.5 232.5q0 203 124 359.5t317 156.5q164 0 213 -141h4l31 113h170l-138 -525
q-15 -42 -15 -78q0 -42 36 -42q80 0 156.5 113.5t76.5 254.5q0 231 -149.5 364.5t-376.5 133.5q-250 0 -415 -175t-165 -427q0 -260 170 -427t430 -167q129 0 247 49t198 137h155q-100 -156 -260.5 -243t-347.5 -87q-317 0 -538.5 214.5t-221.5 529.5zM580 631
q0 -82 43 -132t118 -50q113 0 188 106.5t75 220.5q0 76 -43 125t-115 49q-113 0 -189.5 -102t-76.5 -217z" />
    <glyph glyph-name="A" unicode="A" horiz-adv-x="1515" 
d="M14 0l631 1516h219l635 -1516h-309l-162 391h-543l-161 -391h-310zM580 655h348l-172 465h-4z" />
    <glyph glyph-name="B" unicode="B" horiz-adv-x="1187" 
d="M143 1516h299q113 0 173.5 -4.5t146.5 -31t147 -81.5q57 -51 93 -128t36 -155q0 -193 -170 -289q260 -96 260 -376q0 -227 -188 -361q-129 -90 -391 -90h-406v1516zM424 262h141q283 0 283 199q0 29 -9.5 58.5t-36 65.5t-86 57.5t-145.5 21.5h-147v-402zM424 926h92
q242 0 242 164q0 74 -52.5 118.5t-164.5 44.5h-117v-327z" />
    <glyph glyph-name="C" unicode="C" horiz-adv-x="1597" 
d="M70 764q0 317 229 549.5t555 232.5q211 0 411.5 -115.5t303.5 -347.5h-320q-174 201 -405 201q-190 0 -342 -151.5t-152 -372.5q0 -213 150.5 -371t353.5 -158q92 0 176 37t119 69t86 85h326q-88 -205 -284 -329t-417 -124q-326 0 -558 235.5t-232 559.5z" />
    <glyph glyph-name="D" unicode="D" horiz-adv-x="1433" 
d="M129 0v1516h344q418 0 623 -177q111 -94 180.5 -252.5t69.5 -332.5q0 -205 -98.5 -385.5t-264.5 -270.5q-176 -98 -504 -98h-350zM410 1253v-991h59q125 0 205 14.5t164 59.5q109 59 168 175t59 243q0 109 -44 208t-118 164q-82 74 -186.5 100.5t-253.5 26.5h-53z" />
    <glyph glyph-name="E" unicode="E" horiz-adv-x="1064" 
d="M125 0v1516h815v-263h-534v-370h512v-262h-512v-359h534v-262h-815z" />
    <glyph glyph-name="F" unicode="F" horiz-adv-x="983" 
d="M125 0v1516h772v-263h-491v-370h468v-262h-468v-621h-281z" />
    <glyph glyph-name="G" unicode="G" horiz-adv-x="1720" 
d="M55 758q0 330 241 559t566 229q266 0 468 -146.5t267 -328.5h-335q-57 88 -163 150.5t-243 62.5q-162 0 -284.5 -84t-179 -201.5t-56.5 -242.5q0 -90 33.5 -180.5t97 -168t169 -127t234.5 -49.5q141 0 262 74t187 205h-635v262h989v-33q0 -319 -239.5 -544.5
t-563.5 -225.5q-215 0 -402 101.5t-300 284t-113 403.5z" />
    <glyph glyph-name="H" unicode="H" horiz-adv-x="1392" 
d="M145 0v1516h281v-617h543v617h280v-1516h-280v637h-543v-637h-281z" />
    <glyph glyph-name="I" unicode="I" horiz-adv-x="573" 
d="M147 0v1516h281v-1516h-281z" />
    <glyph glyph-name="J" unicode="J" horiz-adv-x="983" 
d="M4 356h283q29 -125 133 -125q55 0 88 35t41 70t8 76v1104h281v-1086q0 -141 -47.5 -240.5t-120 -143.5t-132 -60.5t-114.5 -16.5q-193 0 -309 131q-84 98 -111 256z" />
    <glyph glyph-name="K" unicode="K" horiz-adv-x="1269" 
d="M182 0v1516h281v-656h4l473 656h330l-572 -746l572 -770h-330l-473 666h-4v-666h-281z" />
    <glyph glyph-name="L" unicode="L" horiz-adv-x="901" 
d="M147 0v1516h281v-1254h463v-262h-744z" />
    <glyph glyph-name="M" unicode="M" horiz-adv-x="1843" 
d="M129 0v1516h389l404 -1147h4l399 1147h389v-1516h-280v1137h-2h-5l-387 -1137h-237l-389 1137h-4v-1137h-281z" />
    <glyph glyph-name="N" unicode="N" horiz-adv-x="1515" 
d="M143 0v1516h320l627 -1102h4v1102h280v-1516h-313l-633 1102h-4v-1102h-281z" />
    <glyph glyph-name="O" unicode="O" horiz-adv-x="1720" 
d="M68 754q0 334 233.5 563t559 229t559 -229.5t233.5 -562.5q0 -326 -232.5 -555.5t-560.5 -229.5t-560 229.5t-232 555.5zM348 756q0 -213 148.5 -369t363.5 -156t363.5 156t148.5 369q0 219 -149.5 373.5t-362.5 154.5t-362.5 -154.5t-149.5 -373.5z" />
    <glyph glyph-name="P" unicode="P" 
d="M147 0v1516h381q104 0 159.5 -4.5t136.5 -32t149 -84.5q143 -131 143 -348.5t-143 -348.5q-68 -57 -149 -84.5t-136 -31.5t-160 -4h-100v-578h-281zM428 1253v-413h90q61 0 103.5 5t98.5 23.5t86 63.5t30 114.5t-30 114.5t-84 63.5t-95 23.5t-99 5h-100z" />
    <glyph glyph-name="Q" unicode="Q" horiz-adv-x="1720" 
d="M66 754q0 334 233 563t559 229q324 0 558.5 -227t234.5 -555q0 -123 -34 -230.5t-60.5 -150.5t-71.5 -102q66 -49 157 -50h46v-262h-39q-176 0 -361 125q-195 -125 -430 -125q-328 0 -560 229.5t-232 555.5zM346 774q0 -31 4 -47q83 19 174 19q16 0 33 -1
q111 0 224.5 -31.5t195.5 -75.5t148.5 -89t100.5 -76t34 -33h4q2 4 12 17.5t14 19.5l14 21q9 14 14 24l13 28q8 17 12 32l11 34q6 20 9 41t5 46.5t2 52.5q0 225 -150.5 376.5t-361.5 151.5q-223 0 -363.5 -155.5t-148.5 -354.5zM434 465q78 -123 200 -180q114 -54 210 -54
h14q94 0 207 45q-279 207 -510 207q-66 0 -121 -18z" />
    <glyph glyph-name="R" unicode="R" horiz-adv-x="1187" 
d="M131 0v1516h465q242 0 369 -103q178 -143 178 -366q0 -88 -36 -189.5t-110 -173.5q-90 -86 -252 -125l412 -559h-340l-401 580h-4v-580h-281zM412 791h180q82 0 139 24.5t84 63.5t37 73.5t10 71.5q0 84 -62.5 156.5t-207.5 72.5h-180v-462z" />
    <glyph glyph-name="S" unicode="S" horiz-adv-x="1064" 
d="M25 434h294q10 -104 68.5 -153.5t132.5 -49.5q86 0 147.5 53.5t61.5 137.5q0 53 -12 89t-57.5 66.5t-73 43t-115.5 45.5l-31 12q-145 55 -202 98q-158 117 -158 338q0 182 127 307t317 125q158 0 298.5 -110.5t150.5 -321.5h-287q-16 170 -170 170q-68 0 -112 -43
t-44 -110q0 -39 13.5 -69t29 -47.5t57.5 -37t64 -27.5l88 -30q43 -14 74 -26.5t83 -39.5t90 -60.5t75 -80.5t56.5 -114t19.5 -146q0 -229 -147.5 -356.5t-344.5 -127.5q-78 0 -157.5 27t-154.5 80t-125 146t-56 212z" />
    <glyph glyph-name="T" unicode="T" horiz-adv-x="860" 
d="M12 1253v263h844v-263h-283v-1253h-280v1253h-281z" />
    <glyph glyph-name="U" unicode="U" horiz-adv-x="1310" 
d="M113 553v963h282l-2 -963q0 -322 262.5 -322t262.5 322v963h280v-963q0 -236 -88 -358q-72 -100 -188.5 -163t-264.5 -63q-156 0 -272.5 66.5t-177.5 150.5q-94 125 -94 367z" />
    <glyph glyph-name="V" unicode="V" horiz-adv-x="1433" 
d="M16 1516h295l406 -1154h4l407 1154h295l-587 -1516h-230z" />
    <glyph glyph-name="W" unicode="W" horiz-adv-x="1843" 
d="M14 1516h287l262 -1059h4l260 1059h205l254 -1059h4l264 1059h287l-440 -1516h-223l-246 1001h-4l-250 -1001h-221z" />
    <glyph glyph-name="X" unicode="X" horiz-adv-x="1392" 
d="M8 0l522 756l-522 760h334l354 -529l365 529h323l-524 -760l524 -756h-323l-365 524l-354 -524h-334z" />
    <glyph glyph-name="Y" unicode="Y" horiz-adv-x="1269" 
d="M-4 1516h307l330 -697l332 697h309l-500 -957v-559h-280v559z" />
    <glyph glyph-name="Z" unicode="Z" horiz-adv-x="1024" 
d="M39 0v229l579 1024h-548v263h876v-244l-575 -1010h614v-262h-946z" />
    <glyph glyph-name="bracketleft" unicode="[" horiz-adv-x="655" 
d="M135 369v551q0 100 20.5 187t48 145.5t74 108.5t82 77.5t87 53.5t75 34t60.5 18v-299q-33 -16 -49.5 -25.5t-43 -38t-40 -64.5t-23.5 -101.5t-10 -153.5v-543q0 -94 15 -161.5t46 -102.5t51.5 -49t53.5 -29v-299q-447 105 -447 691z" />
    <glyph glyph-name="backslash" unicode="\" horiz-adv-x="1310" 
d="M197 1516h276l641 -1721h-274z" />
    <glyph glyph-name="bracketright" unicode="]" horiz-adv-x="655" 
d="M74 -322v302q41 18 61.5 33.5t49 54t42 112.5t13.5 182v541q0 94 -15.5 162t-46.5 102.5t-51 49t-53 28.5v299q446 -104 446 -690v-551q0 -100 -20.5 -187t-48 -145.5t-73.5 -108.5t-82 -78t-87 -53.5t-74.5 -34t-60.5 -18.5z" />
    <glyph glyph-name="asciicircum" unicode="^" horiz-adv-x="1228" 
d="M150 768l356 748h217l356 -748h-245l-220 508l-221 -508h-243z" />
    <glyph glyph-name="underscore" unicode="_" horiz-adv-x="1024" 
d="M0 -154h1024v-102h-1024v102z" />
    <glyph glyph-name="grave" unicode="`" horiz-adv-x="860" 
d="M102 1534l117 209l455 -277l-109 -188z" />
    <glyph glyph-name="a" unicode="a" horiz-adv-x="1351" 
d="M55 575q0 258 165 429.5t405 171.5q66 0 127 -17.5t103 -42t77 -52.5t50 -45.5t19 -25.5h5v144h249v-1137h-249v141q-66 -78 -178.5 -128t-219.5 -50q-229 0 -391 169t-162 443zM328 563q0 -145 96 -247.5t242 -102.5q143 0 237 100.5t94 257.5q0 166 -99 260.5
t-232 94.5q-158 0 -248 -111t-90 -252z" />
    <glyph glyph-name="b" unicode="b" horiz-adv-x="1351" 
d="M96 1516h273v-482q141 141 354 142q250 0 410.5 -182.5t160.5 -420.5q0 -92 -31.5 -192t-94 -196.5t-177 -159t-262.5 -62.5q-102 0 -183 31t-118 61.5t-82 81.5v-137h-250v1516zM352 584q0 -176 104.5 -273.5t237.5 -97.5q137 0 232.5 98.5t95.5 259.5
q0 160 -98.5 257.5t-233.5 97.5q-150 0 -244 -104.5t-94 -237.5z" />
    <glyph glyph-name="c" unicode="c" horiz-adv-x="1310" 
d="M76 573q0 256 180 429.5t422 173.5q63 0 135 -17.5t159 -58.5t161.5 -129t115.5 -211h-307q-18 31 -33.5 51t-46.5 51t-78 47.5t-106 16.5q-133 0 -231.5 -95.5t-98.5 -261.5q0 -150 96.5 -253t245.5 -103q154 0 252 158h307q-70 -190 -220 -299t-349 -109
q-233 0 -418.5 171t-185.5 439z" />
    <glyph glyph-name="d" unicode="d" horiz-adv-x="1351" 
d="M70 567q0 182 89 325.5t220 213.5t270 70q211 0 344 -140v480h273v-1516h-250v139h-4q-45 -72 -137.5 -124t-225.5 -52q-227 0 -403 170t-176 434zM342 578q0 -156 99.5 -260.5t236.5 -104.5q147 0 241.5 109.5t94.5 246.5q0 143 -97.5 250t-238.5 107
q-143 0 -239.5 -109.5t-96.5 -238.5z" />
    <glyph glyph-name="e" unicode="e" horiz-adv-x="1310" 
d="M63 565q0 248 171.5 432.5t427.5 184.5q172 0 310 -90.5t207.5 -226.5t69.5 -281q0 -63 -16 -138h-883q12 -74 98.5 -153.5t215.5 -79.5q182 0 262 145h286q-51 -162 -203.5 -278.5t-344.5 -116.5q-252 0 -426.5 176t-174.5 426zM342 666h629q-23 129 -110 197.5
t-197 68.5q-96 0 -191.5 -62.5t-130.5 -203.5z" />
    <glyph glyph-name="f" unicode="f" horiz-adv-x="573" 
d="M31 895v242h96q16 215 133 317q98 92 238 92h75v-268q-49 0 -71.5 -3t-49 -16.5t-39 -43t-14.5 -78.5h160v-242h-160v-895h-272v895h-96z" />
    <glyph glyph-name="g" unicode="g" horiz-adv-x="1351" 
d="M66 580q0 258 176 427t403 169q242 0 363 -179h4v140h264v-928q0 -156 -44 -279t-111.5 -194.5t-154.5 -118.5t-163 -63.5t-148 -16.5q-184 0 -342.5 97.5t-228.5 279.5h311q106 -127 281 -127q129 0 233.5 91t114.5 263l-4 4q-131 -182 -373 -182q-223 0 -402 173.5
t-179 443.5zM338 578q0 -164 103.5 -264.5t236.5 -100.5q129 0 227.5 101.5t98.5 265.5q0 129 -94.5 237.5t-239.5 108.5q-131 0 -231.5 -97t-100.5 -251z" />
    <glyph glyph-name="h" unicode="h" horiz-adv-x="1228" 
d="M111 1516h272v-459q127 119 295 119q96 0 192.5 -48.5t157.5 -126.5q90 -115 90 -360v-641h-272v582q0 49 -2 83.5t-15.5 88t-36 87t-69.5 59.5t-111 26q-229 0 -229 -348v-578h-272v1516z" />
    <glyph glyph-name="i" unicode="i" horiz-adv-x="491" 
d="M109 0v1137h272v-1137h-272zM109 1266v250h272v-250h-272z" />
    <glyph glyph-name="j" unicode="j" horiz-adv-x="532" 
d="M33 -113q70 8 92 37t22 131v1082h273v-1088q0 -188 -105.5 -307t-281.5 -121v266zM147 1266v250h273v-250h-273z" />
    <glyph glyph-name="k" unicode="k" horiz-adv-x="1187" 
d="M164 0v1516h272v-914h4l363 535h313l-409 -557l462 -580h-344l-385 532h-4v-532h-272z" />
    <glyph glyph-name="l" unicode="l" horiz-adv-x="491" 
d="M111 0v1516h272v-1516h-272z" />
    <glyph glyph-name="m" unicode="m" horiz-adv-x="1925" 
d="M111 0v1137h249v-97h5q82 135 297 136q211 0 327 -179q125 178 367 179q250 0 375 -177q86 -113 86 -335v-664h-273v631q0 295 -215 295q-125 0 -188 -107q-41 -63 -41 -252v-567h-273v631q0 129 -54 212t-173 83q-51 0 -91 -16.5t-62.5 -50.5t-37 -65.5t-19.5 -80.5
t-6 -76t-1 -70v-567h-272z" />
    <glyph glyph-name="n" unicode="n" horiz-adv-x="1228" 
d="M111 0v1137h252v-99q143 137 311 138q84 0 180 -39t162 -119q104 -125 104 -404v-614h-272v561q0 365 -230 365q-45 0 -99 -24.5t-87 -76.5q-49 -70 -49 -284v-541h-272z" />
    <glyph glyph-name="o" unicode="o" horiz-adv-x="1310" 
d="M51 567q0 256 179.5 432.5t426.5 176.5q246 0 424.5 -174.5t178.5 -430.5q0 -270 -178.5 -439t-424.5 -169q-252 0 -429 179t-177 425zM324 567q0 -156 99 -255t234 -99q143 0 236.5 105.5t93.5 246.5q0 152 -99.5 256.5t-230.5 104.5q-121 0 -227 -97.5t-106 -261.5z
" />
    <glyph glyph-name="p" unicode="p" horiz-adv-x="1351" 
d="M96 -379v1516h250v-133h4q135 172 369 172q176 0 310 -93.5t196.5 -228.5t62.5 -281q0 -254 -165 -432t-404 -178q-90 0 -163 25.5t-106.5 50t-80.5 70.5v-488h-273zM352 569q0 -172 107.5 -264t224.5 -92q123 0 227.5 97.5t104.5 258.5q0 152 -98.5 254.5t-229.5 102.5
q-133 0 -234.5 -99.5t-101.5 -257.5z" />
    <glyph glyph-name="q" unicode="q" horiz-adv-x="1351" 
d="M63 580q0 244 171.5 420t404.5 176q240 0 362 -183h5v144h249v-1516h-272v488q-133 -145 -346 -146q-250 0 -412 185.5t-162 431.5zM336 573q0 -164 99.5 -262t234.5 -98q141 0 234 106.5t93 248t-92 250t-237 108.5q-143 0 -237.5 -105t-94.5 -248z" />
    <glyph glyph-name="r" unicode="r" horiz-adv-x="655" 
d="M129 1137h250v-101h4q33 47 56.5 72t72.5 46.5t115 21.5h22v-265q-248 -10 -248 -272v-639h-272v1137z" />
    <glyph glyph-name="s" unicode="s" horiz-adv-x="901" 
d="M39 358h278q8 -37 18.5 -62.5t45.5 -54t86 -28.5q59 0 91 36t32 79q0 59 -47 86.5t-209 83.5q-111 37 -182.5 116.5t-71.5 208.5q0 158 116.5 255.5t264.5 97.5q139 0 250.5 -94.5t119.5 -254.5h-266q-20 98 -108 99q-47 0 -76 -30t-29 -69q0 -45 36 -66.5t157 -60.5
q66 -20 110.5 -40.5t98 -58.5t81 -98.5t27.5 -142.5q0 -182 -119.5 -289.5t-277.5 -107.5q-221 0 -340 150q-72 89 -86 245z" />
    <glyph glyph-name="t" unicode="t" horiz-adv-x="614" 
d="M43 895v242h133v379h273v-379h163v-242h-163v-895h-273v895h-133z" />
    <glyph glyph-name="u" unicode="u" horiz-adv-x="1228" 
d="M102 543v594h273v-580q0 -344 237 -344q121 0 175.5 96.5t54.5 245.5v582h272v-1137h-250v115h-4q-31 -41 -58.5 -69t-91 -55.5t-143.5 -27.5q-248 0 -381 180q-84 121 -84 400z" />
    <glyph glyph-name="v" unicode="v" 
d="M6 1137h295l274 -754h7l258 754h299l-461 -1137h-213z" />
    <glyph glyph-name="w" unicode="w" horiz-adv-x="1638" 
d="M23 1137h290l207 -695h4l187 695h217l184 -695h4l209 695h291l-416 -1137h-168l-213 737h-4l-215 -737h-168z" />
    <glyph glyph-name="x" unicode="x" 
d="M6 0l404 586l-353 551h305l209 -342l207 342h305l-352 -551l408 -586h-324l-244 389l-241 -389h-324z" />
    <glyph glyph-name="y" unicode="y" horiz-adv-x="1187" 
d="M16 1137h312l258 -729l274 729h309l-653 -1516h-293l209 485z" />
    <glyph glyph-name="z" unicode="z" horiz-adv-x="942" 
d="M41 0v250l504 637h-447v250h772v-250l-503 -637h538v-250h-864z" />
    <glyph glyph-name="braceleft" unicode="{" horiz-adv-x="696" 
d="M-6 477v203q25 0 52.5 4t64 15.5t59.5 39t23 66.5v442q0 131 94 207t178 76h184v-184h-92q-84 0 -84 -134v-434q0 -74 -45 -120t-96 -60t-115 -16v-7q41 -2 67.5 -6t65.5 -16t62.5 -33.5t42 -62.5t18.5 -97v-434q0 -133 84 -133h92v-184h-184q-84 0 -178 75.5t-94 206.5
v443q0 59 -43.5 94t-81 42t-74.5 7z" />
    <glyph glyph-name="bar" unicode="|" horiz-adv-x="1228" 
d="M477 -205v1721h273v-1721h-273z" />
    <glyph glyph-name="braceright" unicode="}" horiz-adv-x="696" 
d="M47 -207h92q84 0 84 133v434q0 55 18.5 96.5t42 63t62.5 33.5t65.5 16t67.5 6v7q-63 2 -114.5 16t-96.5 60.5t-45 119.5v434q0 133 -84 134h-92v184h184q84 0 178.5 -76t94.5 -207v-442q0 -39 22.5 -66.5t59.5 -39t64.5 -15.5t51.5 -4v-203q-37 0 -74.5 -7t-80.5 -42
t-43 -94v-443q0 -131 -94.5 -206.5t-178.5 -75.5h-184v184z" />
    <glyph glyph-name="asciitilde" unicode="~" horiz-adv-x="1228" 
d="M137 524q100 182 260 183q80 0 228 -66l44 -19q30 -13 47 -21l41 -16q24 -9 42 -13.5t35 -4.5q39 0 75.5 24.5t54.5 47.5l54 72l74 -201q-45 -59 -71 -89t-78 -60.5t-112 -30.5q-86 0 -208 67q-127 72 -236 72q-61 0 -101 -38t-75 -103z" />
    <glyph glyph-name="uni00A0" unicode="&#xa0;" horiz-adv-x="573" 
 />
    <glyph glyph-name="exclamdown" unicode="&#xa1;" horiz-adv-x="573" 
d="M152 -379v1129h272v-1129h-272zM152 877v260h272v-260h-272z" />
    <glyph glyph-name="cent" unicode="&#xa2;" 
d="M88 784q0 166 105.5 302.5t263.5 168.5v209h258v-209q51 -16 79.5 -27t67.5 -37t74 -63q100 -102 123 -221h-287q-27 43 -81 68.5t-109 25.5q-92 0 -157 -64.5t-65 -160.5q0 -94 64.5 -158.5t161.5 -64.5q88 0 174 82h299q-37 -90 -82 -154.5t-99.5 -99.5t-85 -49.5
t-77.5 -28.5v-223h-258v223q-168 35 -268.5 180t-100.5 301z" />
    <glyph glyph-name="sterling" unicode="&#xa3;" 
d="M-4 637v258h115q-33 76 -33 164q0 190 141 338.5t350 148.5q113 0 208 -48t152.5 -117.5t89.5 -141.5t32 -127h-277q-16 84 -75.5 130t-127.5 46q-104 0 -162.5 -74.5t-58.5 -169.5q0 -86 58 -149h426v-258h-224q37 -76 50.5 -121t13.5 -123q0 -76 -23 -135h23
q104 0 154.5 65.5t50.5 137.5q0 33 -21 102h272q20 -39 21 -104q0 -70 -25.5 -143.5t-78 -147.5t-153.5 -121t-235 -47h-581v258h284q39 72 39 148q0 51 -20.5 99t-41 72.5t-54.5 59.5h-289z" />
    <glyph glyph-name="currency" unicode="&#xa4;" 
d="M55 283l142 143q-63 106 -64 236q0 131 64 235l-142 141l142 144l141 -144q106 63 235 64q133 0 236 -64l143 144l142 -144l-144 -141q63 -102 64 -235q0 -135 -64 -234l144 -145l-142 -142l-143 146q-106 -66 -235.5 -66t-235.5 64l-141 -144zM385 661.5
q0 -79.5 54.5 -135t134 -55.5t134 55.5t54.5 135t-54.5 135t-134 55.5t-134 -55.5t-54.5 -135z" />
    <glyph glyph-name="yen" unicode="&#xa5;" 
d="M-20 1516h280l315 -590l318 590h274l-282 -515h180v-215h-291l-63 -116v-68h336v-215h-336v-387h-273v387h-340v215h340v68l-65 116h-291v215h180z" />
    <glyph glyph-name="brokenbar" unicode="&#xa6;" horiz-adv-x="1228" 
d="M477 -205v688h273v-688h-273zM477 827v689h273v-689h-273z" />
    <glyph glyph-name="section" unicode="&#xa7;" 
d="M57 711q0 63 18.5 116.5t55.5 91t56.5 54t52.5 39.5q-59 98 -60 192q0 168 122 255t288 87q379 0 426 -385h-256q-27 135 -168 135q-84 0 -120 -35.5t-36 -78.5q0 -74 129 -129l336 -172q74 -37 118 -97.5t55 -103.5t11 -84q0 -68 -40.5 -146.5t-126.5 -142.5
q102 -102 102 -246q0 -172 -126 -278.5t-314 -106.5q-193 0 -323 117t-138 318h256v-15q6 -88 67.5 -129t139 -41t130 37t52.5 96q0 35 -22.5 64t-47 44t-78.5 42l-340 180q-219 113 -219 322zM313 727q0 -70 117 -127l318 -162q82 59 81 133q0 31 -20.5 56.5t-39.5 39
t-58 33.5l-316 160q-27 -18 -54.5 -56t-27.5 -77z" />
    <glyph glyph-name="dieresis" unicode="&#xa8;" horiz-adv-x="1024" 
d="M160 1303v272h274v-272h-274zM592 1303v272h272v-272h-272z" />
    <glyph glyph-name="copyright" unicode="&#xa9;" horiz-adv-x="1515" 
d="M-25 758q0 322 228.5 552t556.5 230q324 0 552 -230.5t228 -551.5q0 -324 -229.5 -553.5t-550.5 -229.5q-328 0 -556.5 229.5t-228.5 553.5zM160 758q0 -252 174 -429t424 -177q248 0 423 177t175 429q0 250 -173 428t-425 178t-425 -178t-173 -428zM330 760
q0 203 120.5 335t319.5 132q160 0 269.5 -92.5t123.5 -219.5h-184q-31 90 -82 124t-127 34q-117 0 -186.5 -86t-69.5 -227q0 -152 69.5 -233t186.5 -81q80 0 131 34t78 124h184q-14 -127 -123.5 -219t-269.5 -92q-199 0 -319.5 132t-120.5 335z" />
    <glyph glyph-name="ordfeminine" unicode="&#xaa;" horiz-adv-x="737" 
d="M39 1225q0 137 90 229t215 92q109 0 156 -73h4v53h180v-608h-180v51h-4q-47 -72 -156 -72q-123 0 -214 90.5t-91 237.5zM223 1219q0 -61 40 -104.5t101.5 -43.5t102.5 43t41 109q0 70 -43 109.5t-100 39.5q-66 0 -104 -47t-38 -106z" />
    <glyph glyph-name="guillemotleft" unicode="&#xab;" horiz-adv-x="942" 
d="M125 489v207l287 265v-252l-140 -117l140 -119v-252zM532 489v207l287 265v-252l-139 -117l139 -119v-252z" />
    <glyph glyph-name="logicalnot" unicode="&#xac;" horiz-adv-x="1228" 
d="M98 625v245h1032v-649h-245v404h-787z" />
    <glyph glyph-name="uni00AD" unicode="&#xad;" horiz-adv-x="860" 
d="M145 471v242h570v-242h-570z" />
    <glyph glyph-name="registered" unicode="&#xae;" horiz-adv-x="1515" 
d="M-25 758q0 322 228.5 552t556.5 230q324 0 552 -230.5t228 -551.5q0 -324 -229.5 -553.5t-550.5 -229.5q-328 0 -556.5 229.5t-228.5 553.5zM160 758q0 -252 174 -429t424 -177q248 0 423 177t175 429q0 250 -173 428t-425 178t-425 -178t-173 -428zM424 303v895h377
q31 0 55.5 -1t77.5 -14.5t89 -37t64.5 -72.5t28.5 -119q0 -178 -166 -217v-4q86 -25 116 -76t34 -147q6 -121 10 -150.5t18 -56.5h-182q-23 35 -26 166q-4 106 -36 145t-124 48h-158v-359h-178zM602 1053v-248h160q35 0 55.5 3t52 14.5t48 43t16.5 82.5q-6 63 -45 84
t-107 21h-180z" />
    <glyph glyph-name="macron" unicode="&#xaf;" horiz-adv-x="860" 
d="M147 1327v227h568v-227h-568z" />
    <glyph glyph-name="degree" unicode="&#xb0;" horiz-adv-x="819" 
d="M117 1165q0 123 85 208t207.5 85t207.5 -85t85 -208t-85 -208t-207.5 -85t-207.5 85t-85 208zM264 1165q0 -61 43 -106t102.5 -45t102.5 45t43 106q0 59 -43 105.5t-102.5 46.5t-102.5 -46.5t-43 -105.5z" />
    <glyph glyph-name="plusminus" unicode="&#xb1;" horiz-adv-x="1228" 
d="M98 119h1032v-246h-1032v246zM98 573v246h394v320h245v-320h393v-246h-393v-307h-245v307h-394z" />
    <glyph glyph-name="uni00B2" unicode="&#xb2;" horiz-adv-x="688" 
d="M27 1231q0 117 87 210t228 93t229 -91t88 -210q0 -156 -178 -307l-164 -144h342v-176h-622v166l325 301q100 88 101 164q0 57 -36 89t-85 32q-119 -4 -119 -149v-15h-194q-2 17 -2 37z" />
    <glyph glyph-name="uni00B3" unicode="&#xb3;" horiz-adv-x="688" 
d="M16 891h197q6 -66 47 -96.5t86 -30.5q51 0 90 35t39 94q0 137 -160 137h-43v176h45q90 0 91 80q0 72 -70 72q-57 0 -57 -74h-197q8 147 121 213q61 37 137 37q111 0 186.5 -75t75.5 -175q0 -98 -69 -156q55 -25 88.5 -74.5t41 -86.5t7.5 -72q0 -137 -99.5 -222
t-232.5 -85q-125 0 -220.5 80t-103.5 223z" />
    <glyph glyph-name="acute" unicode="&#xb4;" horiz-adv-x="860" 
d="M186 1466l461 273l111 -215l-467 -246z" />
    <glyph glyph-name="uni00B5" unicode="&#xb5;" horiz-adv-x="1179" 
d="M78 -383v1520h272v-541q0 -113 7.5 -173.5t35.5 -107.5q66 -102 195 -102t186 96.5t57 243.5v584h273v-1137h-273v127h-4q-20 -59 -79.5 -111.5t-165.5 -52.5q-154 0 -228 96h-4v-442h-272z" />
    <glyph glyph-name="paragraph" unicode="&#xb6;" horiz-adv-x="1228" 
d="M-14 1114q0 401 520 402h737v-211h-162v-1516h-231v1516h-199v-1516h-231v938h-29q-70 0 -137.5 20.5t-130 63.5t-100 121t-37.5 182z" />
    <glyph glyph-name="cedilla" unicode="&#xb8;" horiz-adv-x="696" 
d="M201 -336h108q6 -35 33 -55.5t64 -20.5q41 0 67.5 28t26.5 71t-28 72.5t-69 29.5q-63 0 -88 -45l-100 39l100 229l103 -14l-49 -111q29 4 51 4q78 0 134 -55t56 -149.5t-58 -147.5t-146 -53q-94 0 -149.5 60.5t-55.5 117.5z" />
    <glyph glyph-name="uni00B9" unicode="&#xb9;" horiz-adv-x="688" 
d="M147 1339v177h310v-910h-197v733h-113z" />
    <glyph glyph-name="ordmasculine" unicode="&#xba;" horiz-adv-x="737" 
d="M47 1221q0 137 95.5 231t228.5 94q131 0 226 -93t95 -230q0 -143 -95 -234.5t-226 -91.5q-133 0 -228.5 96.5t-95.5 227.5zM231 1221q0 -63 42 -106.5t98 -43.5q59 0 98 44t39 104q0 66 -42 109.5t-95.5 43.5t-96.5 -39.5t-43 -111.5z" />
    <glyph glyph-name="guillemotright" unicode="&#xbb;" horiz-adv-x="942" 
d="M125 221v252l139 119l-139 117v252l287 -265v-207zM532 221v252l140 119l-140 117v252l287 -265v-207z" />
    <glyph glyph-name="onequarter" unicode="&#xbc;" horiz-adv-x="1720" 
d="M188 1339v177h310v-910h-197v733h-113zM383 0l627 1516h202l-628 -1516h-201zM838 133v143l434 633h155v-608h101v-168h-101v-133h-184v133h-405zM1040 301h203v326h-4z" />
    <glyph glyph-name="onehalf" unicode="&#xbd;" horiz-adv-x="1720" 
d="M127 1339v177h309v-910h-196v733h-113zM322 0l626 1516h203l-629 -1516h-200zM946 625q0 117 87 210t228.5 93t229.5 -91.5t88 -209.5q0 -156 -178 -308l-164 -143h342v-176h-623v166l326 301q100 88 100 164q0 57 -35.5 89t-84.5 32q-119 -4 -120 -150q0 -7 1 -14h-195
q-2 17 -2 37z" />
    <glyph glyph-name="threequarters" unicode="&#xbe;" horiz-adv-x="1720" 
d="M37 891h196q6 -66 47.5 -96.5t86.5 -30.5q51 0 90 35t39 94q0 137 -160 137h-43v176h45q90 0 90 80q0 72 -70 72q-57 0 -57 -74h-197q8 147 121 213q61 37 137 37q111 0 187 -75t76 -175q0 -98 -70 -156q55 -25 89 -74.5t41 -86.5t7 -72q0 -137 -99 -222t-233 -85
q-125 0 -220 80t-103 223zM500 0l626 1516h203l-629 -1516h-200zM954 133v143l435 633h155v-608h101v-168h-101v-133h-184v133h-406zM1157 301h203v326h-4z" />
    <glyph glyph-name="questiondown" unicode="&#xbf;" 
d="M139 57q0 88 41 172t166 201q45 37 67.5 62.5t43 75.5t20.5 116v70h273v-60q0 -256 -183 -409q-84 -70 -119.5 -117t-35.5 -111q0 -104 60 -149t132 -45q45 0 80 14t53.5 31.5t31.5 49.5t17.5 51.5t8.5 53.5h272q-10 -133 -62.5 -230t-110.5 -141t-134 -69.5t-107.5 -29
t-56.5 -3.5q-186 0 -321.5 127t-135.5 340zM477 864v273h273v-273h-273z" />
    <glyph glyph-name="Agrave" unicode="&#xc0;" horiz-adv-x="1515" 
d="M14 0l631 1516h219l635 -1516h-309l-162 391h-543l-161 -391h-310zM430 1882l117 209l454 -276l-108 -189zM580 655h348l-172 465h-4z" />
    <glyph glyph-name="Aacute" unicode="&#xc1;" horiz-adv-x="1515" 
d="M14 0l631 1516h219l635 -1516h-309l-162 391h-543l-161 -391h-310zM514 1815l461 272l110 -215l-467 -246zM580 655h348l-172 465h-4z" />
    <glyph glyph-name="Acircumflex" unicode="&#xc2;" horiz-adv-x="1515" 
d="M14 0l631 1516h219l635 -1516h-309l-162 391h-543l-161 -391h-310zM350 1651l303 282h215l299 -282h-297l-108 131l-115 -131h-297zM580 655h348l-172 465h-4z" />
    <glyph glyph-name="Atilde" unicode="&#xc3;" horiz-adv-x="1515" 
d="M14 0l631 1516h219l635 -1516h-309l-162 391h-543l-161 -391h-310zM356 1831q117 88 238 88q51 0 168 -33q88 -27 133 -26q84 0 156 47l110 -160q-121 -96 -233 -96q-47 0 -193 39q-53 16 -104 16q-82 0 -164 -41zM580 655h348l-172 465h-4z" />
    <glyph glyph-name="Adieresis" unicode="&#xc4;" horiz-adv-x="1515" 
d="M14 0l631 1516h219l635 -1516h-309l-162 391h-543l-161 -391h-310zM406 1651v272h274v-272h-274zM580 655h348l-172 465h-4zM838 1651v272h272v-272h-272z" />
    <glyph glyph-name="Aring" unicode="&#xc5;" horiz-adv-x="1515" 
d="M14 0l631 1516h219l635 -1516h-309l-162 391h-543l-161 -391h-310zM539 1763q0 92 64.5 157t154.5 65q92 0 156.5 -65t64.5 -157q0 -90 -65.5 -154.5t-155.5 -64.5t-154.5 64.5t-64.5 154.5zM580 655h348l-172 465h-4zM676 1763.5q0 -34.5 24.5 -58.5t57.5 -24
q35 0 59.5 24t24.5 58.5t-24.5 59t-59.5 24.5t-58.5 -24.5t-23.5 -59z" />
    <glyph glyph-name="AE" unicode="&#xc6;" horiz-adv-x="1843" 
d="M-10 0l1001 1516h697v-263h-451v-370h428v-262h-428v-359h451v-262h-732v391h-401l-236 -391h-329zM721 653h235v400h-4z" />
    <glyph glyph-name="Ccedilla" unicode="&#xc7;" horiz-adv-x="1597" 
d="M70 764q0 317 229 549.5t555 232.5q211 0 411.5 -115.5t303.5 -347.5h-320q-174 201 -405 201q-190 0 -342 -151.5t-152 -372.5q0 -213 150.5 -371t353.5 -158q92 0 176 37t119 69t86 85h326q-88 -205 -284 -329t-417 -124q-16 0 -24 2l-37 -84q29 4 51 4q78 0 134 -55
t56 -149.5t-58 -147.5t-146 -53q-94 0 -149.5 60.5t-55.5 117.5h108q6 -35 33 -55.5t64 -20.5q41 0 67.5 28t26.5 71t-27.5 72.5t-68.5 29.5q-63 0 -89 -45l-100 39l86 199q-283 47 -472 270t-189 512z" />
    <glyph glyph-name="Egrave" unicode="&#xc8;" horiz-adv-x="1064" 
d="M125 0v1516h815v-263h-534v-370h512v-262h-512v-359h534v-262h-815zM205 1882l117 209l454 -276l-108 -189z" />
    <glyph glyph-name="Eacute" unicode="&#xc9;" horiz-adv-x="1064" 
d="M125 0v1516h815v-263h-534v-370h512v-262h-512v-359h534v-262h-815zM289 1815l461 272l110 -215l-467 -246z" />
    <glyph glyph-name="Ecircumflex" unicode="&#xca;" horiz-adv-x="1064" 
d="M125 0v1516h815v-263h-534v-370h512v-262h-512v-359h534v-262h-815zM125 1651l303 282h215l299 -282h-297l-108 131l-115 -131h-297z" />
    <glyph glyph-name="Edieresis" unicode="&#xcb;" horiz-adv-x="1064" 
d="M125 0v1516h815v-263h-534v-370h512v-262h-512v-359h534v-262h-815zM180 1651v272h275v-272h-275zM612 1651v272h273v-272h-273z" />
    <glyph glyph-name="Igrave" unicode="&#xcc;" horiz-adv-x="573" 
d="M-92 1882l117 209l454 -276l-108 -189zM147 0v1516h281v-1516h-281z" />
    <glyph glyph-name="Iacute" unicode="&#xcd;" horiz-adv-x="573" 
d="M94 1815l461 272l111 -215l-467 -246zM147 0v1516h281v-1516h-281z" />
    <glyph glyph-name="Icircumflex" unicode="&#xce;" horiz-adv-x="573" 
d="M-121 1651l303 282h215l299 -282h-297l-108 131l-115 -131h-297zM147 0v1516h281v-1516h-281z" />
    <glyph glyph-name="Idieresis" unicode="&#xcf;" horiz-adv-x="573" 
d="M-66 1651v272h275v-272h-275zM147 0v1516h281v-1516h-281zM367 1651v272h272v-272h-272z" />
    <glyph glyph-name="Eth" unicode="&#xd0;" horiz-adv-x="1519" 
d="M51 637v262h148v617h344q418 0 622 -177q111 -94 180.5 -252.5t69.5 -332.5q0 -205 -98 -385.5t-264 -270.5q-176 -98 -504 -98h-350v637h-148zM479 899h281v-262h-281v-375h60q125 0 204.5 14.5t163.5 59.5q109 59 168.5 175t59.5 243q0 109 -44 208t-118 164
q-82 74 -186.5 100.5t-254.5 26.5h-53v-354z" />
    <glyph glyph-name="Ntilde" unicode="&#xd1;" horiz-adv-x="1515" 
d="M143 0v1516h320l627 -1102h4v1102h280v-1516h-313l-633 1102h-4v-1102h-281zM356 1831q117 88 238 88q51 0 168 -33q88 -27 133 -26q84 0 156 47l110 -160q-121 -96 -233 -96q-47 0 -193 39q-53 16 -104 16q-82 0 -164 -41z" />
    <glyph glyph-name="Ograve" unicode="&#xd2;" horiz-adv-x="1720" 
d="M68 754q0 334 233.5 563t559 229t559 -229.5t233.5 -562.5q0 -326 -232.5 -555.5t-560.5 -229.5t-560 229.5t-232 555.5zM348 756q0 -213 148.5 -369t363.5 -156t363.5 156t148.5 369q0 219 -149.5 373.5t-362.5 154.5t-362.5 -154.5t-149.5 -373.5zM532 1882l117 209
l455 -276l-109 -189z" />
    <glyph glyph-name="Oacute" unicode="&#xd3;" horiz-adv-x="1720" 
d="M68 754q0 334 233.5 563t559 229t559 -229.5t233.5 -562.5q0 -326 -232.5 -555.5t-560.5 -229.5t-560 229.5t-232 555.5zM348 756q0 -213 148.5 -369t363.5 -156t363.5 156t148.5 369q0 219 -149.5 373.5t-362.5 154.5t-362.5 -154.5t-149.5 -373.5zM616 1815l461 272
l111 -215l-467 -246z" />
    <glyph glyph-name="Ocircumflex" unicode="&#xd4;" horiz-adv-x="1720" 
d="M68 754q0 334 233.5 563t559 229t559 -229.5t233.5 -562.5q0 -326 -232.5 -555.5t-560.5 -229.5t-560 229.5t-232 555.5zM348 756q0 -213 148.5 -369t363.5 -156t363.5 156t148.5 369q0 219 -149.5 373.5t-362.5 154.5t-362.5 -154.5t-149.5 -373.5zM453 1651l303 282
h215l299 -282h-297l-109 131l-114 -131h-297z" />
    <glyph glyph-name="Otilde" unicode="&#xd5;" horiz-adv-x="1720" 
d="M68 754q0 334 233.5 563t559 229t559 -229.5t233.5 -562.5q0 -326 -232.5 -555.5t-560.5 -229.5t-560 229.5t-232 555.5zM348 756q0 -213 148.5 -369t363.5 -156t363.5 156t148.5 369q0 219 -149.5 373.5t-362.5 154.5t-362.5 -154.5t-149.5 -373.5zM459 1831
q117 88 237 88q51 0 168 -33q88 -27 133 -26q84 0 156 47l111 -160q-121 -96 -234 -96q-47 0 -192 39q-53 16 -105 16q-82 0 -164 -41z" />
    <glyph glyph-name="Odieresis" unicode="&#xd6;" horiz-adv-x="1720" 
d="M68 754q0 334 233.5 563t559 229t559 -229.5t233.5 -562.5q0 -326 -232.5 -555.5t-560.5 -229.5t-560 229.5t-232 555.5zM348 756q0 -213 148.5 -369t363.5 -156t363.5 156t148.5 369q0 219 -149.5 373.5t-362.5 154.5t-362.5 -154.5t-149.5 -373.5zM508 1651v272h274
v-272h-274zM940 1651v272h272v-272h-272z" />
    <glyph glyph-name="multiply" unicode="&#xd7;" horiz-adv-x="1228" 
d="M121 193l325 325l-325 326l168 168l325 -326l326 326l168 -168l-328 -326l328 -325l-168 -168l-326 327l-325 -327z" />
    <glyph glyph-name="Oslash" unicode="&#xd8;" horiz-adv-x="1720" 
d="M68 754q0 334 233.5 563t558.5 229q178 0 332 -73v2l129 192l223 -154l-131 -192q240 -229 240 -567q0 -326 -232.5 -555.5t-560.5 -229.5q-168 0 -319 68l-125 -182l-226 153l123 180q-245 230 -245 566zM348 756q0 -190 123 -336l567 831q-84 33 -178 33
q-213 0 -362.5 -154.5t-149.5 -373.5zM692 260q80 -29 168 -29q215 0 363.5 156t148.5 369q0 186 -115 334z" />
    <glyph glyph-name="Ugrave" unicode="&#xd9;" horiz-adv-x="1310" 
d="M113 553v963h282l-2 -963q0 -322 262.5 -322t262.5 322v963h280v-963q0 -236 -88 -358q-72 -100 -188.5 -163t-264.5 -63q-156 0 -272.5 66.5t-177.5 150.5q-94 125 -94 367zM256 1882l117 209l454 -276l-108 -189z" />
    <glyph glyph-name="Uacute" unicode="&#xda;" horiz-adv-x="1310" 
d="M113 553v963h282l-2 -963q0 -322 262.5 -322t262.5 322v963h280v-963q0 -236 -88 -358q-72 -100 -188.5 -163t-264.5 -63q-156 0 -272.5 66.5t-177.5 150.5q-94 125 -94 367zM483 1815l461 272l111 -215l-467 -246z" />
    <glyph glyph-name="Ucircumflex" unicode="&#xdb;" horiz-adv-x="1310" 
d="M113 553v963h282l-2 -963q0 -322 262.5 -322t262.5 322v963h280v-963q0 -236 -88 -358q-72 -100 -188.5 -163t-264.5 -63q-156 0 -272.5 66.5t-177.5 150.5q-94 125 -94 367zM248 1651l303 282h215l299 -282h-297l-109 131l-114 -131h-297z" />
    <glyph glyph-name="Udieresis" unicode="&#xdc;" horiz-adv-x="1310" 
d="M113 553v963h282l-2 -963q0 -322 262.5 -322t262.5 322v963h280v-963q0 -236 -88 -358q-72 -100 -188.5 -163t-264.5 -63q-156 0 -272.5 66.5t-177.5 150.5q-94 125 -94 367zM303 1651v272h275v-272h-275zM735 1651v272h273v-272h-273z" />
    <glyph glyph-name="Yacute" unicode="&#xdd;" horiz-adv-x="1269" 
d="M-4 1516h307l330 -697l332 697h309l-500 -957v-559h-280v559zM463 1815l461 272l110 -215l-467 -246z" />
    <glyph glyph-name="Thorn" unicode="&#xde;" 
d="M147 0v1516h281v-287h100q104 0 159.5 -4t136.5 -32t149 -85q143 -131 143 -348t-143 -348q-68 -57 -149 -85t-136 -32t-160 -4h-100v-291h-281zM428 967v-414h90q61 0 103.5 5t98.5 23.5t86 63.5t30 114.5t-30 115t-84 63.5t-95 23.5t-99 5.5h-100z" />
    <glyph glyph-name="germandbls" unicode="&#xdf;" horiz-adv-x="1228" 
d="M104 0v999q0 139 38 245t91.5 161t122 89t117.5 43t92 9q178 0 309.5 -121.5t131.5 -308.5q0 -199 -136 -278q104 -27 176 -79t102 -116.5t40 -111t10 -93.5q0 -207 -120 -341t-337 -134q-272 0 -383 187h-4v-150h-250zM377 1030v-643h176q12 -76 68 -125q53 -49 120 -49
q74 0 129.5 55.5t55.5 147.5q-2 76 -38 126t-100.5 71.5t-121 27.5t-138.5 6v242q102 0 153.5 61.5t51.5 153.5t-50 142t-124 50q-182 0 -182 -266z" />
    <glyph glyph-name="agrave" unicode="&#xe0;" horiz-adv-x="1351" 
d="M55 575q0 258 165 429.5t405 171.5q66 0 127 -17.5t103 -42t77 -52.5t50 -45.5t19 -25.5h5v144h249v-1137h-249v141q-66 -78 -178.5 -128t-219.5 -50q-229 0 -391 169t-162 443zM328 563q0 -145 96 -247.5t242 -102.5q143 0 237 100.5t94 257.5q0 166 -99 260.5
t-232 94.5q-158 0 -248 -111t-90 -252zM348 1534l117 209l455 -277l-109 -188z" />
    <glyph glyph-name="aacute" unicode="&#xe1;" horiz-adv-x="1351" 
d="M55 575q0 258 165 429.5t405 171.5q66 0 127 -17.5t103 -42t77 -52.5t50 -45.5t19 -25.5h5v144h249v-1137h-249v141q-66 -78 -178.5 -128t-219.5 -50q-229 0 -391 169t-162 443zM328 563q0 -145 96 -247.5t242 -102.5q143 0 237 100.5t94 257.5q0 166 -99 260.5
t-232 94.5q-158 0 -248 -111t-90 -252zM432 1466l461 273l111 -215l-467 -246z" />
    <glyph glyph-name="acircumflex" unicode="&#xe2;" horiz-adv-x="1351" 
d="M55 575q0 258 165 429.5t405 171.5q66 0 127 -17.5t103 -42t77 -52.5t50 -45.5t19 -25.5h5v144h249v-1137h-249v141q-66 -78 -178.5 -128t-219.5 -50q-229 0 -391 169t-162 443zM268 1303l303 282h215l299 -282h-297l-108 131l-115 -131h-297zM328 563q0 -145 96 -247.5
t242 -102.5q143 0 237 100.5t94 257.5q0 166 -99 260.5t-232 94.5q-158 0 -248 -111t-90 -252z" />
    <glyph glyph-name="atilde" unicode="&#xe3;" horiz-adv-x="1351" 
d="M55 575q0 258 165 429.5t405 171.5q66 0 127 -17.5t103 -42t77 -52.5t50 -45.5t19 -25.5h5v144h249v-1137h-249v141q-66 -78 -178.5 -128t-219.5 -50q-229 0 -391 169t-162 443zM274 1483q117 88 238 88q51 0 168 -33q88 -27 133 -27q84 0 156 48l110 -160
q-121 -96 -233 -96q-47 0 -193 38q-53 16 -104 17q-82 0 -164 -41zM328 563q0 -145 96 -247.5t242 -102.5q143 0 237 100.5t94 257.5q0 166 -99 260.5t-232 94.5q-158 0 -248 -111t-90 -252z" />
    <glyph glyph-name="adieresis" unicode="&#xe4;" horiz-adv-x="1351" 
d="M55 575q0 258 165 429.5t405 171.5q66 0 127 -17.5t103 -42t77 -52.5t50 -45.5t19 -25.5h5v144h249v-1137h-249v141q-66 -78 -178.5 -128t-219.5 -50q-229 0 -391 169t-162 443zM324 1303v272h274v-272h-274zM328 563q0 -145 96 -247.5t242 -102.5q143 0 237 100.5
t94 257.5q0 166 -99 260.5t-232 94.5q-158 0 -248 -111t-90 -252zM756 1303v272h272v-272h-272z" />
    <glyph glyph-name="aring" unicode="&#xe5;" horiz-adv-x="1351" 
d="M55 575q0 258 165 429.5t405 171.5q66 0 127 -17.5t103 -42t77 -52.5t50 -45.5t19 -25.5h5v144h249v-1137h-249v141q-66 -78 -178.5 -128t-219.5 -50q-229 0 -391 169t-162 443zM328 563q0 -145 96 -247.5t242 -102.5q143 0 237 100.5t94 257.5q0 166 -99 260.5
t-232 94.5q-158 0 -248 -111t-90 -252zM457 1487q0 92 64.5 156.5t154.5 64.5q92 0 156.5 -64.5t64.5 -156.5q0 -90 -65.5 -154.5t-155.5 -64.5t-154.5 64.5t-64.5 154.5zM594 1487q0 -33 24.5 -57.5t57.5 -24.5q35 0 59.5 23.5t24.5 58.5t-24.5 59.5t-59.5 24.5
t-58.5 -24.5t-23.5 -59.5z" />
    <glyph glyph-name="ae" unicode="&#xe6;" horiz-adv-x="2211" 
d="M59 567q0 256 175.5 432.5t410.5 176.5q94 0 171 -27t104.5 -49.5t72.5 -65.5v103h250v-103q135 141 348 142q211 0 383 -177.5t172 -414.5q0 -13 1 -25q0 -61 -9 -113h-885q27 -109 120 -171t186 -62q113 0 179 45t91 100h287q-41 -133 -191.5 -264t-345.5 -131
q-217 0 -332 152h-4v-115h-250v115h-4q-109 -152 -348.5 -152t-410.5 180t-171 424zM332 565q0 -137 92 -244.5t233 -107.5q133 0 230.5 103.5t97.5 252.5q0 156 -99.5 256.5t-226.5 100.5q-123 0 -225 -96.5t-102 -264.5zM1245 666h629q-4 31 -18.5 65.5t-46 81.5t-95 79
t-147.5 34q-119 0 -207 -71.5t-115 -188.5z" />
    <glyph glyph-name="ccedilla" unicode="&#xe7;" horiz-adv-x="1310" 
d="M76 573q0 256 180 429.5t422 173.5q63 0 135 -17.5t159 -58.5t161.5 -129t115.5 -211h-307q-18 31 -33.5 51t-46.5 51t-78 47.5t-106 16.5q-133 0 -231.5 -95.5t-98.5 -261.5q0 -150 96.5 -253t245.5 -103q154 0 252 158h307q-70 -190 -220 -299t-349 -109h-6l-35 -76
q29 4 51 4q78 0 134.5 -55t56.5 -149.5t-58.5 -147.5t-146.5 -53q-94 0 -149.5 60.5t-55.5 117.5h109q6 -35 32.5 -55.5t63.5 -20.5q41 0 67.5 28t26.5 71t-27.5 72.5t-68.5 29.5q-63 0 -88 -45l-101 39l84 192q-203 39 -348 200.5t-145 397.5z" />
    <glyph glyph-name="egrave" unicode="&#xe8;" horiz-adv-x="1310" 
d="M63 565q0 248 171.5 432.5t427.5 184.5q172 0 310 -90.5t207.5 -226.5t69.5 -281q0 -63 -16 -138h-883q12 -74 98.5 -153.5t215.5 -79.5q182 0 262 145h286q-51 -162 -203.5 -278.5t-344.5 -116.5q-252 0 -426.5 176t-174.5 426zM328 1534l116 209l455 -277l-108 -188z
M342 666h629q-23 129 -110 197.5t-197 68.5q-96 0 -191.5 -62.5t-130.5 -203.5z" />
    <glyph glyph-name="eacute" unicode="&#xe9;" horiz-adv-x="1310" 
d="M63 565q0 248 171.5 432.5t427.5 184.5q172 0 310 -90.5t207.5 -226.5t69.5 -281q0 -63 -16 -138h-883q12 -74 98.5 -153.5t215.5 -79.5q182 0 262 145h286q-51 -162 -203.5 -278.5t-344.5 -116.5q-252 0 -426.5 176t-174.5 426zM342 666h629q-23 129 -110 197.5
t-197 68.5q-96 0 -191.5 -62.5t-130.5 -203.5zM412 1466l460 273l111 -215l-467 -246z" />
    <glyph glyph-name="ecircumflex" unicode="&#xea;" horiz-adv-x="1310" 
d="M63 565q0 248 171.5 432.5t427.5 184.5q172 0 310 -90.5t207.5 -226.5t69.5 -281q0 -63 -16 -138h-883q12 -74 98.5 -153.5t215.5 -79.5q182 0 262 145h286q-51 -162 -203.5 -278.5t-344.5 -116.5q-252 0 -426.5 176t-174.5 426zM248 1303l303 282h215l299 -282h-297
l-109 131l-114 -131h-297zM342 666h629q-23 129 -110 197.5t-197 68.5q-96 0 -191.5 -62.5t-130.5 -203.5z" />
    <glyph glyph-name="edieresis" unicode="&#xeb;" horiz-adv-x="1310" 
d="M63 565q0 248 171.5 432.5t427.5 184.5q172 0 310 -90.5t207.5 -226.5t69.5 -281q0 -63 -16 -138h-883q12 -74 98.5 -153.5t215.5 -79.5q182 0 262 145h286q-51 -162 -203.5 -278.5t-344.5 -116.5q-252 0 -426.5 176t-174.5 426zM303 1303v272h275v-272h-275zM342 666
h629q-23 129 -110 197.5t-197 68.5q-96 0 -191.5 -62.5t-130.5 -203.5zM735 1303v272h273v-272h-273z" />
    <glyph glyph-name="igrave" unicode="&#xec;" horiz-adv-x="491" 
d="M-133 1534l117 209l454 -277l-108 -188zM109 0v1137h272v-1137h-272z" />
    <glyph glyph-name="iacute" unicode="&#xed;" horiz-adv-x="491" 
d="M53 1466l461 273l111 -215l-467 -246zM109 0v1137h272v-1137h-272z" />
    <glyph glyph-name="icircumflex" unicode="&#xee;" horiz-adv-x="491" 
d="M-162 1303l303 282h215l299 -282h-297l-108 131l-115 -131h-297zM109 0v1137h272v-1137h-272z" />
    <glyph glyph-name="idieresis" unicode="&#xef;" horiz-adv-x="491" 
d="M-106 1303v272h274v-272h-274zM109 0v1137h272v-1137h-272zM326 1303v272h272v-272h-272z" />
    <glyph glyph-name="eth" unicode="&#xf0;" horiz-adv-x="1310" 
d="M55 567q0 256 179 432q177 174 422 175h6q70 -4 106 -23l4 4q-70 66 -135 109l-309 -93l-176 115l294 90q-98 47 -217 84l308 84q84 -25 186 -82l268 82l176 -123l-270 -80q365 -305 365 -737q0 -295 -177.5 -468t-422.5 -173q-252 0 -429.5 179t-177.5 425zM328 567
q0 -156 99 -255t235 -99q143 0 236 105.5t93 246.5q0 152 -99 256.5t-228 104.5q-123 0 -229.5 -97.5t-106.5 -261.5z" />
    <glyph glyph-name="ntilde" unicode="&#xf1;" horiz-adv-x="1228" 
d="M111 0v1137h252v-99q143 137 311 138q84 0 180 -39t162 -119q104 -125 104 -404v-614h-272v561q0 365 -230 365q-45 0 -99 -24.5t-87 -76.5q-49 -70 -49 -284v-541h-272zM213 1483q117 88 238 88q51 0 168 -33q88 -27 133 -27q84 0 155 48l111 -160q-121 -96 -234 -96
q-47 0 -192 38q-53 16 -105 17q-82 0 -163 -41z" />
    <glyph glyph-name="ograve" unicode="&#xf2;" horiz-adv-x="1310" 
d="M51 567q0 256 179.5 432.5t426.5 176.5q246 0 424.5 -174.5t178.5 -430.5q0 -270 -178.5 -439t-424.5 -169q-252 0 -429 179t-177 425zM324 567q0 -156 99 -255t234 -99q143 0 236.5 105.5t93.5 246.5q0 152 -99.5 256.5t-230.5 104.5q-121 0 -227 -97.5t-106 -261.5z
M328 1534l116 209l455 -277l-108 -188z" />
    <glyph glyph-name="oacute" unicode="&#xf3;" horiz-adv-x="1310" 
d="M51 567q0 256 179.5 432.5t426.5 176.5q246 0 424.5 -174.5t178.5 -430.5q0 -270 -178.5 -439t-424.5 -169q-252 0 -429 179t-177 425zM324 567q0 -156 99 -255t234 -99q143 0 236.5 105.5t93.5 246.5q0 152 -99.5 256.5t-230.5 104.5q-121 0 -227 -97.5t-106 -261.5z
M412 1466l460 273l111 -215l-467 -246z" />
    <glyph glyph-name="ocircumflex" unicode="&#xf4;" horiz-adv-x="1310" 
d="M51 567q0 256 179.5 432.5t426.5 176.5q246 0 424.5 -174.5t178.5 -430.5q0 -270 -178.5 -439t-424.5 -169q-252 0 -429 179t-177 425zM248 1303l303 282h215l299 -282h-297l-109 131l-114 -131h-297zM324 567q0 -156 99 -255t234 -99q143 0 236.5 105.5t93.5 246.5
q0 152 -99.5 256.5t-230.5 104.5q-121 0 -227 -97.5t-106 -261.5z" />
    <glyph glyph-name="otilde" unicode="&#xf5;" horiz-adv-x="1310" 
d="M51 567q0 256 179.5 432.5t426.5 176.5q246 0 424.5 -174.5t178.5 -430.5q0 -270 -178.5 -439t-424.5 -169q-252 0 -429 179t-177 425zM254 1483q117 88 238 88q51 0 167 -33q88 -27 134 -27q84 0 155 48l111 -160q-121 -96 -234 -96q-47 0 -192 38q-53 16 -105 17
q-82 0 -163 -41zM324 567q0 -156 99 -255t234 -99q143 0 236.5 105.5t93.5 246.5q0 152 -99.5 256.5t-230.5 104.5q-121 0 -227 -97.5t-106 -261.5z" />
    <glyph glyph-name="odieresis" unicode="&#xf6;" horiz-adv-x="1310" 
d="M51 567q0 256 179.5 432.5t426.5 176.5q246 0 424.5 -174.5t178.5 -430.5q0 -270 -178.5 -439t-424.5 -169q-252 0 -429 179t-177 425zM303 1303v272h275v-272h-275zM324 567q0 -156 99 -255t234 -99q143 0 236.5 105.5t93.5 246.5q0 152 -99.5 256.5t-230.5 104.5
q-121 0 -227 -97.5t-106 -261.5zM735 1303v272h273v-272h-273z" />
    <glyph glyph-name="divide" unicode="&#xf7;" horiz-adv-x="1228" 
d="M98 395v246h1032v-246h-1032zM492 -41v246h245v-246h-245zM492 831v246h245v-246h-245z" />
    <glyph glyph-name="oslash" unicode="&#xf8;" horiz-adv-x="1351" 
d="M72 567q0 256 179 432.5t427 176.5q125 0 237 -50l3 2l77 117l203 -141l-82 -119q164 -170 164 -414q0 -270 -178 -439t-424 -169q-119 0 -227 45l-78 -110l-203 139l76 110q-174 174 -174 420zM344 567q0 -109 55 -196l369 540q-41 14 -90 15q-121 0 -227.5 -97.5
t-106.5 -261.5zM596 223q45 -10 82 -10q143 0 236.5 105.5t93.5 246.5q0 106 -52 187z" />
    <glyph glyph-name="ugrave" unicode="&#xf9;" horiz-adv-x="1228" 
d="M102 543v594h273v-580q0 -344 237 -344q121 0 175.5 96.5t54.5 245.5v582h272v-1137h-250v115h-4q-31 -41 -58.5 -69t-91 -55.5t-143.5 -27.5q-248 0 -381 180q-84 121 -84 400zM215 1534l117 209l454 -277l-108 -188z" />
    <glyph glyph-name="uacute" unicode="&#xfa;" horiz-adv-x="1228" 
d="M102 543v594h273v-580q0 -344 237 -344q121 0 175.5 96.5t54.5 245.5v582h272v-1137h-250v115h-4q-31 -41 -58.5 -69t-91 -55.5t-143.5 -27.5q-248 0 -381 180q-84 121 -84 400zM442 1466l461 273l111 -215l-467 -246z" />
    <glyph glyph-name="ucircumflex" unicode="&#xfb;" horiz-adv-x="1228" 
d="M102 543v594h273v-580q0 -344 237 -344q121 0 175.5 96.5t54.5 245.5v582h272v-1137h-250v115h-4q-31 -41 -58.5 -69t-91 -55.5t-143.5 -27.5q-248 0 -381 180q-84 121 -84 400zM207 1303l303 282h215l299 -282h-297l-109 131l-114 -131h-297z" />
    <glyph glyph-name="udieresis" unicode="&#xfc;" horiz-adv-x="1228" 
d="M102 543v594h273v-580q0 -344 237 -344q121 0 175.5 96.5t54.5 245.5v582h272v-1137h-250v115h-4q-31 -41 -58.5 -69t-91 -55.5t-143.5 -27.5q-248 0 -381 180q-84 121 -84 400zM262 1303v272h275v-272h-275zM694 1303v272h273v-272h-273z" />
    <glyph glyph-name="yacute" unicode="&#xfd;" horiz-adv-x="1187" 
d="M16 1137h312l258 -729l274 729h309l-653 -1516h-293l209 485zM422 1466l461 273l110 -215l-467 -246z" />
    <glyph glyph-name="thorn" unicode="&#xfe;" horiz-adv-x="1351" 
d="M96 -379v1895h273v-504h4q133 164 346 164q176 0 310 -93.5t196.5 -228.5t62.5 -281q0 -254 -165 -432t-404 -178q-197 0 -350 146v-488h-273zM352 569q0 -172 107.5 -264t224.5 -92q123 0 227.5 97.5t104.5 258.5q0 152 -98.5 254.5t-229.5 102.5q-133 0 -234.5 -99.5
t-101.5 -257.5z" />
    <glyph glyph-name="ydieresis" unicode="&#xff;" horiz-adv-x="1187" 
d="M16 1137h312l258 -729l274 729h309l-653 -1516h-293l209 485zM242 1303v272h274v-272h-274zM674 1303v272h272v-272h-272z" />
    <glyph glyph-name="OE" unicode="&#x152;" horiz-adv-x="2170" 
d="M76 756q0 180 67.5 333.5t176 251t242.5 151.5t274 54q119 0 261 -46t234 -148v164h731v-263h-450v-370h426v-262h-426v-359h450v-262h-731v162q-82 -92 -222 -142.5t-273 -50.5q-137 0 -271.5 55.5t-244 152.5t-177 249t-67.5 330zM356 729q0 -113 55.5 -224.5
t172 -192.5t268.5 -81q211 0 350 157t139 360q0 129 -57 249.5t-174 203.5t-264 83q-203 0 -346.5 -153.5t-143.5 -401.5z" />
    <glyph glyph-name="oe" unicode="&#x153;" horiz-adv-x="2211" 
d="M61 567q0 264 181.5 436.5t416.5 172.5q281 0 453 -234q35 45 66.5 78t86 73t129 61.5t165.5 21.5q240 0 415.5 -169t175.5 -417q0 -76 -12 -144h-889q20 -72 65.5 -123t97.5 -72.5t87 -29.5t62 -8q102 0 170.5 43t97.5 102h282q-61 -188 -223 -291.5t-327 -103.5
q-57 0 -120 11.5t-163 68.5t-166 158q-160 -238 -457 -238q-246 0 -420 176t-174 428zM334 578q0 -164 102.5 -264.5t229.5 -100.5q135 0 232 103.5t97 250.5q0 150 -98 254.5t-233 104.5q-133 0 -231.5 -102.5t-98.5 -245.5zM1245 666h629q-29 119 -113 189.5t-200 70.5
q-119 0 -200 -68.5t-116 -191.5z" />
    <glyph glyph-name="Ydieresis" unicode="&#x178;" horiz-adv-x="1269" 
d="M-4 1516h307l330 -697l332 697h309l-500 -957v-559h-280v559zM283 1651v272h274v-272h-274zM715 1651v272h272v-272h-272z" />
    <glyph glyph-name="circumflex" unicode="&#x2c6;" horiz-adv-x="1105" 
d="M145 1303l304 282h215l299 -282h-297l-109 131l-115 -131h-297z" />
    <glyph glyph-name="tilde" unicode="&#x2dc;" horiz-adv-x="983" 
d="M90 1483q117 88 238 88q51 0 168 -33q88 -27 133 -27q84 0 155 48l111 -160q-121 -96 -233 -96q-47 0 -193 38q-53 16 -104 17q-82 0 -164 -41z" />
    <glyph glyph-name="endash" unicode="&#x2013;" horiz-adv-x="1024" 
d="M72 471v242h880v-242h-880z" />
    <glyph glyph-name="emdash" unicode="&#x2014;" horiz-adv-x="2048" 
d="M72 471v242h1904v-242h-1904z" />
    <glyph glyph-name="quoteleft" unicode="&#x2018;" horiz-adv-x="573" 
d="M147 954v289q0 147 86 211q83 62 179 62h6v-140q-25 -4 -40.5 -9t-35.5 -16.5t-31.5 -34t-11.5 -54.5q0 -27 2 -35h119v-273h-273z" />
    <glyph glyph-name="quoteright" unicode="&#x2019;" horiz-adv-x="573" 
d="M147 1243v273h273v-289q0 -147 -86 -211t-184 -62v138q35 8 54 14t41.5 32.5t22.5 69.5v35h-121z" />
    <glyph glyph-name="quotesinglbase" unicode="&#x201a;" horiz-adv-x="573" 
d="M147 0v272h273v-286q0 -80 -27.5 -137.5t-72 -85t-86 -40t-84.5 -12.5v139q33 6 54 13.5t42.5 33t21.5 68.5v35h-121z" />
    <glyph glyph-name="quotedblleft" unicode="&#x201c;" horiz-adv-x="983" 
d="M143 954v289q0 147 86 211q83 62 179 62h6v-140q-25 -4 -40.5 -9t-36 -16.5t-31.5 -34t-11 -54.5q0 -8 1 -19.5t1 -15.5h119v-273h-273zM567 954v289q0 147 86 211q83 62 179 62h6v-140q-25 -4 -40.5 -9t-36 -16.5t-31.5 -34t-11 -54.5q0 -8 1 -19.5t1 -15.5h119v-273
h-273z" />
    <glyph glyph-name="quotedblright" unicode="&#x201d;" horiz-adv-x="983" 
d="M143 1243v273h273v-289q0 -147 -85 -211q-82 -62 -179 -62h-7v138q35 8 54.5 14t42 32.5t22.5 69.5v35h-121zM567 1243v273h273v-289q0 -147 -85 -211q-82 -62 -179 -62h-7v138q35 8 54.5 14t42 32.5t22.5 69.5v35h-121z" />
    <glyph glyph-name="quotedblbase" unicode="&#x201e;" horiz-adv-x="983" 
d="M143 0v272h273v-286q0 -80 -27 -137.5t-71 -85t-87 -40t-86 -12.5v139q33 6 54.5 13.5t43 33t21.5 68.5v35h-121zM567 0v272h273v-286q0 -80 -27 -137.5t-71 -85t-87 -40t-86 -12.5v139q33 6 54.5 13.5t43 33t21.5 68.5v35h-121z" />
    <glyph glyph-name="bullet" unicode="&#x2022;" horiz-adv-x="1228" 
d="M303 772q0 129 91 223.5t224 94.5q127 0 218.5 -93.5t91.5 -224.5t-92.5 -224t-219.5 -93q-129 0 -221 94t-92 223z" />
    <glyph glyph-name="ellipsis" unicode="&#x2026;" horiz-adv-x="2048" 
d="M205 0v272h272v-272h-272zM887 0v272h272v-272h-272zM1569 0v272h272v-272h-272z" />
    <glyph glyph-name="guilsinglleft" unicode="&#x2039;" horiz-adv-x="491" 
d="M102 489v207l287 265v-252l-139 -117l139 -119v-252z" />
    <glyph glyph-name="guilsinglright" unicode="&#x203a;" horiz-adv-x="491" 
d="M102 221v252l140 119l-140 117v252l287 -265v-207z" />
    <glyph glyph-name="trademark" unicode="&#x2122;" horiz-adv-x="2048" 
d="M18 1346v170h543v-170h-176v-740h-192v740h-175zM682 606v910h258l244 -660l241 660h256v-910h-192v627h-4l-223 -627h-160l-223 627h-5v-627h-192z" />
    <glyph glyph-name="uniE000" unicode="&#xe000;" horiz-adv-x="1135" 
d="M0 1135h1135v-1135h-1135v1135z" />
    <glyph glyph-name="uniFB01" unicode="&#xfb01;" horiz-adv-x="1064" 
d="M51 895v242h96q16 215 134 317q98 92 237 92h76v-268q-49 0 -71.5 -3t-49.5 -16.5t-39 -43t-14 -78.5h524v-1137h-272v895h-252v-895h-273v895h-96zM672 1266v250h272v-250h-272z" />
    <glyph glyph-name="uniFB02" unicode="&#xfb02;" horiz-adv-x="1064" 
d="M51 895v242h96q16 215 134 317q98 92 237 92h76v-268q-49 0 -71.5 -3t-49.5 -16.5t-39 -43t-14 -78.5h252v379h272v-1516h-272v895h-252v-895h-273v895h-96z" />
    <glyph glyph-name="uniFB03" unicode="&#xfb03;" horiz-adv-x="1638" 
d="M31 895v242h96q16 215 133 317q98 92 238 92h75v-268q-49 0 -71.5 -3t-49 -16.5t-39 -43t-14.5 -78.5h160v-242h-160v-895h-272v895h-96zM604 895v242h96q16 215 134 317q98 92 237 92h76v-268q-49 0 -71.5 -3t-49.5 -16.5t-39 -43t-14 -78.5h160v-242h-160v-895h-273
v895h-96zM1255 0v1137h273v-1137h-273zM1255 1266v250h273v-250h-273z" />
    <glyph glyph-name="uniFB04" unicode="&#xfb04;" horiz-adv-x="1638" 
d="M31 895v242h96q16 215 133 317q98 92 238 92h75v-268q-49 0 -71.5 -3t-49 -16.5t-39 -43t-14.5 -78.5h160v-242h-160v-895h-272v895h-96zM604 895v242h96q16 215 134 317q98 92 237 92h76v-268q-49 0 -71.5 -3t-49.5 -16.5t-39 -43t-14 -78.5h160v-242h-160v-895h-273
v895h-96zM1257 0v1516h273v-1516h-273z" />
    </font>
</defs>
</svg>
